<svg xmlns="http://www.w3.org/2000/svg" viewBox="0 0 720 400" width="720" height="400" font-family="ui-sans-serif, system-ui, -apple-system, BlinkMacSystemFont, sans-serif"><rect width="720" height="400" fill="#ffffff"/><text x="56" y="28" font-size="18" font-weight="600" fill="#0f172a">Hamilton — calibration over nights</text><text x="56" y="46" font-size="11" fill="#64748b">compline · mean citation validity per tune run · 4 runs</text><line x1="56" y1="344.0" x2="696" y2="344.0" stroke="#e2e8f0" stroke-width="1"/><text x="48" y="348.0" font-size="11" fill="#64748b" text-anchor="end">0.00</text><line x1="56" y1="272.0" x2="696" y2="272.0" stroke="#e2e8f0" stroke-width="1"/><text x="48" y="276.0" font-size="11" fill="#64748b" text-anchor="end">0.25</text><line x1="56" y1="200.0" x2="696" y2="200.0" stroke="#e2e8f0" stroke-width="1"/><text x="48" y="204.0" font-size="11" fill="#64748b" text-anchor="end">0.50</text><line x1="56" y1="128.0" x2="696" y2="128.0" stroke="#e2e8f0" stroke-width="1"/><text x="48" y="132.0" font-size="11" fill="#64748b" text-anchor="end">0.75</text><line x1="56" y1="56.0" x2="696" y2="56.0" stroke="#e2e8f0" stroke-width="1"/><text x="48" y="60.0" font-size="11" fill="#64748b" text-anchor="end">1.00</text><line x1="56" y1="56" x2="56" y2="344" stroke="#cbd5e1" stroke-width="1.5"/><line x1="56" y1="344" x2="696" y2="344" stroke="#cbd5e1" stroke-width="1.5"/><text transform="translate(16 200.0) rotate(-90)" font-size="11" fill="#64748b" text-anchor="middle">calibration score</text><path d="M 56.0 130.4 L 269.3 236.0 L 482.7 56.0 L 696.0 66.1" fill="none" stroke="#0f766e" stroke-width="2.5" stroke-linecap="round" stroke-linejoin="round"/><circle cx="56.0" cy="130.4" r="5" fill="#ffffff" stroke="#0f766e" stroke-width="2"/><text x="56.0" y="118.4" font-size="11" font-weight="600" fill="#0f172a" text-anchor="middle">0.74</text><circle cx="269.3" cy="236.0" r="5" fill="#ffffff" stroke="#0f766e" stroke-width="2"/><text x="269.3" y="224.0" font-size="11" font-weight="600" fill="#0f172a" text-anchor="middle">0.38</text><circle cx="482.7" cy="56.0" r="5" fill="#ffffff" stroke="#0f766e" stroke-width="2"/><text x="482.7" y="78.0" font-size="11" font-weight="600" fill="#0f172a" text-anchor="middle">1.00</text><circle cx="696.0" cy="66.1" r="5" fill="#ffffff" stroke="#0f766e" stroke-width="2"/><text x="696.0" y="88.1" font-size="11" font-weight="600" fill="#0f172a" text-anchor="middle">0.96</text><text x="56.0" y="362.0" font-size="10" fill="#64748b" text-anchor="middle">04-28</text><text x="56.0" y="376.0" font-size="9" fill="#64748b" text-anchor="middle">5 turns</text><text x="269.3" y="362.0" font-size="10" fill="#64748b" text-anchor="middle">04-28</text><text x="269.3" y="376.0" font-size="9" fill="#64748b" text-anchor="middle">2 turns</text><text x="482.7" y="362.0" font-size="10" fill="#64748b" text-anchor="middle">04-28</text><text x="482.7" y="376.0" font-size="9" fill="#64748b" text-anchor="middle">2 turns</text><text x="696.0" y="362.0" font-size="10" fill="#64748b" text-anchor="middle">04-28</text><text x="696.0" y="376.0" font-size="9" fill="#64748b" text-anchor="middle">18 turns</text></svg>